<?xml version="1.0" encoding="UTF-8"?>
<!DOCTYPE svg PUBLIC "-//W3C//DTD SVG 1.1//EN" "http://www.w3.org/Graphics/SVG/1.1/DTD/svg11.dtd">
<!-- Creator: CorelDRAW 2020 (64-Bit) -->
<svg xmlns="http://www.w3.org/2000/svg" xml:space="preserve" width="5in" height="5.75484in" version="1.1" shape-rendering="geometricPrecision" text-rendering="geometricPrecision" image-rendering="optimizeQuality" fill-rule="evenodd" clip-rule="evenodd"
viewBox="0 0 4504.26 5184.26"
 xmlns:xlink="http://www.w3.org/1999/xlink"
 xmlns:xodm="http://www.corel.com/coreldraw/odm/2003">
 <g id="Camada_x0020_1">
  <metadata id="CorelCorpID_0Corel-Layer"/>
  <g id="_1962565743744">
   <g>
    <path fill="white" fill-rule="nonzero" d="M579.73 1455.24l1659 970.87 1674.2 -965.98 -1732.55 -1000.28 -1600.66 995.39zm1558.56 1368.8l-1742.56 -1019.74 0 1913.43 1843.16 1016.52 1867.06 -1017.38 3.4 -1915.24 -1872.18 1080.29 -98.87 -57.87zm-2138.29 1010.05l0 -2483.44 2171.87 -1350.65 2332.39 1346.63 -4.65 2604.69 -2262.6 1232.94 -2236.98 -1233.72 0 -116.45 -0.03 0z"/>
    <polygon fill="white" fill-rule="nonzero" points="482.2,2031.43 2092.69,2961.53 2101.69,4514.09 482.2,3626.4 482.2,2671.86 1776.56,3402.88 1770.39,3692.64 737.81,3108.35 737.81,3472.99 1837.11,4053.65 1837.11,3107.78 482.2,2327.95 "/>
    <polygon fill="white" fill-rule="nonzero" points="2333.49,2961.53 2324.5,4514.09 3943.99,3626.4 3943.99,2671.86 2649.66,3402.88 2655.8,3692.64 3688.38,3108.35 3688.38,3472.99 2589.11,4053.65 2589.11,3107.78 "/>
   </g>
  </g>
 </g>
</svg>
