<?xml version="1.0" encoding="UTF-8"?>
<!DOCTYPE svg PUBLIC "-//W3C//DTD SVG 1.1//EN" "http://www.w3.org/Graphics/SVG/1.1/DTD/svg11.dtd">
<!-- Creator: CorelDRAW 2020 (64 Bit) -->
<svg xmlns="http://www.w3.org/2000/svg" xml:space="preserve" width="200px" height="200px" version="1.1" style="shape-rendering:geometricPrecision; text-rendering:geometricPrecision; image-rendering:optimizeQuality; fill-rule:evenodd; clip-rule:evenodd"
 <g id="Camada_x0020_1">
  <metadata id="CorelCorpID_0Corel-Layer"/>
  <g id="_1962565743744">
   <g>
    <path class="fil0" d="M77.096 77.755l21.042 12.314 21.235 -12.252 -21.975 -12.687 -20.302 12.625zm19.768 17.361l-22.102 -12.934 0 24.269 23.378 12.893 23.681 -12.904 0.043 -24.292 -23.746 13.702 -1.254 -0.734zm-27.121 12.811l0 -31.499 27.547 -17.131 29.583 17.08 -0.059 33.037 -28.698 15.638 -28.373 -15.648 0 -1.477z"/>
    <polygon class="fil0" points="75.859,85.063 96.286,96.86 96.4,116.552 75.859,105.293 75.859,93.186 92.276,102.458 92.198,106.133 79.101,98.722 79.101,103.347 93.044,110.712 93.044,98.715 75.859,88.824 "/>
    <polygon class="fil0" points="99.34,96.86 99.226,116.552 119.767,105.293 119.767,93.186 103.35,102.458 103.428,106.133 116.525,98.722 116.525,103.347 102.582,110.712 102.582,98.715 "/>
    <text x="54.197" y="139.277"  class="fil1 fnt0">ARCABOUÇO</text>
   </g>
   <g transform="matrix(0.190515 -0.99637 2.2298 0.08513 -103.298 232.298)">
    <text x="100" y="100"  class="fil1 fnt1">~</text>
   </g>
  </g>
 </g>
</svg>
