<?xml version="1.0" encoding="UTF-8"?>
<!DOCTYPE svg PUBLIC "-//W3C//DTD SVG 1.0//EN" "http://www.w3.org/TR/2001/REC-SVG-20010904/DTD/svg10.dtd">
<!-- Creator: CorelDRAW 2020 (64-Bit) -->
<svg xmlns="http://www.w3.org/2000/svg" xml:space="preserve" width="2.2611in" height="2.60246in" version="1.0" style="shape-rendering:geometricPrecision; text-rendering:geometricPrecision; image-rendering:optimizeQuality; fill-rule:evenodd; clip-rule:evenodd"
viewBox="0 0 2432.56 2799.8"
 xmlns:xlink="http://www.w3.org/1999/xlink"
 xmlns:xodm="http://www.corel.com/coreldraw/odm/2003">
 <defs>
  <style type="text/css">
   <![CDATA[
    .fil0 {fill:white;fill-rule:nonzero}
   ]]>
  </style>
 </defs>
 <g id="Camada_x0020_1">
  <g id="_1962565743744">
   <g>
    <path class="fil0" d="M313.09 785.91l895.96 524.32 904.17 -521.68 -935.67 -540.21 -864.45 537.57zm841.71 739.23l-941.08 -550.72 0 1033.36 995.41 548.98 1008.32 -549.44 1.83 -1034.34 -1011.08 583.42 -53.4 -31.25zm-1154.8 545.48l0 -1341.2 1172.93 -729.43 1259.63 727.26 -2.51 1406.68 -1221.93 665.86 -1208.1 -666.28 0 -62.89 -0.02 0z"/>
    <polygon class="fil0" points="260.41,1097.09 1130.17,1599.39 1135.03,2437.87 260.41,1958.46 260.41,1442.96 959.44,1837.75 956.11,1994.23 398.46,1678.69 398.46,1875.61 992.14,2189.2 992.14,1678.38 260.41,1257.23 "/>
    <polygon class="fil0" points="1260.22,1599.39 1255.36,2437.87 2129.98,1958.46 2129.98,1442.96 1430.97,1837.75 1434.28,1994.23 1991.93,1678.69 1991.93,1875.61 1398.26,2189.2 1398.26,1678.38 "/>
   </g>
  </g>
 </g>
</svg>
