<svg width="30" height="33" viewBox="0 0 30 33" fill="none" xmlns="http://www.w3.org/2000/svg">
<path d="M29.506 8.1555C28.4384 6.3135 25.8758 5.5575 22.2848 6.0195C21.83 6.0795 21.3618 6.1605 20.8845 6.2565C19.5309 2.4285 17.4214 0 15.0003 0C12.5762 0 10.4637 2.436 9.10863 6.2745C4.98611 5.4615 1.7203 6.0405 0.493183 8.1555C-0.729422 10.266 0.387786 13.3605 3.13865 16.5C0.387786 19.641 -0.730928 22.734 0.493183 24.8445C1.36948 26.3565 3.27867 27.0885 5.80067 27.0885C6.91253 27.0733 8.02032 26.9513 9.10863 26.724C10.4637 30.564 12.5762 33 15.0003 33C17.4199 33 19.5309 30.5715 20.886 26.745C21.3618 26.8395 21.8301 26.9205 22.2863 26.9805C22.9332 27.0658 23.585 27.1099 24.2376 27.1125C26.8048 27.1125 28.6447 26.3325 29.5075 24.8445C30.7301 22.734 29.6129 19.6395 26.862 16.5C29.6129 13.359 30.7301 10.266 29.506 8.1555V8.1555ZM22.5061 7.71C23.0851 7.63287 23.6685 7.59278 24.2527 7.59C26.1498 7.59 27.4899 8.0805 28.0274 9.0075C28.7863 10.3185 27.9265 12.6705 25.6906 15.2595C24.6091 14.1995 23.4506 13.2203 22.2245 12.33C22.0607 10.8436 21.7854 9.37147 21.4009 7.926C21.7683 7.8555 22.1538 7.755 22.5061 7.71V7.71ZM17.8807 21.471C16.9065 22.0305 15.9474 22.5255 15.0094 22.9605C14.0242 22.5065 13.0597 22.0095 12.1185 21.471C11.1803 20.9314 10.2665 20.3508 9.37965 19.731C9.1837 17.5809 9.1837 15.4176 9.37965 13.2675C11.153 12.0307 13.0323 10.9521 14.9958 10.044C15.9399 10.482 16.9005 10.9665 17.8807 11.529C18.8579 12.0915 19.7703 12.675 20.621 13.269C20.8167 15.4186 20.8167 17.5814 20.621 19.731C19.7703 20.325 18.8579 20.9085 17.8807 21.471V21.471ZM20.3319 21.9735C20.1831 22.8951 19.9861 23.8084 19.7417 24.7095C18.8442 24.4624 17.9598 24.1705 17.0917 23.835C17.6383 23.5545 18.1863 23.2605 18.7359 22.944C19.2855 22.629 19.8155 22.3035 20.3319 21.9735V21.9735ZM12.918 23.8395C12.0469 24.1744 11.1595 24.4653 10.259 24.711C10.0145 23.8094 9.81745 22.8956 9.66874 21.9735C10.1867 22.3035 10.7167 22.629 11.2648 22.944C11.8143 23.259 12.3639 23.5545 12.918 23.8395V23.8395ZM7.58339 18.375C6.84967 17.7861 6.14661 17.1603 5.47696 16.5C6.14711 15.8397 6.85067 15.2138 7.58489 14.625C7.55478 15.24 7.53521 15.864 7.53521 16.5C7.53521 17.136 7.55328 17.76 7.58339 18.375V18.375ZM9.67025 11.028C9.81858 10.1069 10.0151 9.19417 10.259 8.2935C11.1615 8.53657 12.051 8.82545 12.924 9.159C12.3699 9.444 11.8173 9.7395 11.2678 10.056C10.7182 10.371 10.1882 10.6965 9.67176 11.0265L9.67025 11.028ZM17.0932 9.165C17.9613 8.82953 18.8457 8.53766 19.7432 8.2905C19.9876 9.19164 20.1846 10.1049 20.3334 11.0265C19.2836 10.3551 18.2024 9.73386 17.0932 9.165V9.165ZM22.4188 14.625C23.1514 15.214 23.8535 15.8398 24.5222 16.5C23.853 17.1603 23.1505 17.7861 22.4173 18.375C22.4474 17.76 22.4654 17.136 22.4654 16.5C22.4654 15.864 22.4474 15.24 22.4173 14.625H22.4188ZM15.0003 1.6935C16.503 1.6935 18.096 3.5445 19.2267 6.6585C17.7823 7.06243 16.3688 7.56924 14.9973 8.175C13.6271 7.57107 12.2145 7.06724 10.7709 6.6675C11.9017 3.5475 13.4947 1.6935 15.0003 1.6935ZM1.97326 9.0075C2.50175 8.0955 3.85836 7.6065 5.76755 7.6065C6.72042 7.61964 7.67003 7.72057 8.60423 7.908C8.21732 9.35924 7.9405 10.8374 7.77611 12.33C6.55003 13.2203 5.39153 14.1994 4.31006 15.2595C2.07263 12.6705 1.21289 10.32 1.97326 9.0075ZM1.97326 23.9925C1.21289 22.6815 2.07263 20.3295 4.31006 17.7405C5.39061 18.8004 6.54809 19.7796 7.7731 20.67C7.93797 22.1652 8.2158 23.6459 8.60423 25.0995C5.22099 25.743 2.73513 25.3095 1.97175 23.9925H1.97326ZM15.0003 31.305C13.4962 31.305 11.9017 29.4495 10.7694 26.3295C12.2146 25.9313 13.6287 25.4285 15.0003 24.825C16.3704 25.43 17.7824 25.9363 19.2252 26.34C18.096 29.454 16.5 31.305 14.9988 31.305H15.0003ZM28.0274 23.991C27.3348 25.179 25.3277 25.6545 22.5061 25.2885C22.1523 25.2435 21.7683 25.143 21.4009 25.0725C21.7854 23.627 22.0607 22.1549 22.2245 20.6685C23.4506 19.7782 24.6091 18.799 25.6906 17.739C27.9265 20.328 28.7863 22.68 28.0274 23.991V23.991Z" fill="#A9B6D2"/>
<path d="M15.2541 18.394C16.4721 18.394 17.4594 17.4104 17.4594 16.197C17.4594 14.9836 16.4721 14 15.2541 14C14.0362 14 13.0488 14.9836 13.0488 16.197C13.0488 17.4104 14.0362 18.394 15.2541 18.394Z" fill="#A9B6D2"/>
</svg>
