<svg id="Layer_1" data-name="Layer 1" xmlns="http://www.w3.org/2000/svg" viewBox="0 0 512 512"><title>atom-glyph</title><path d="M305.62,256A49.62,49.62,0,1,1,256,206.38,49.61,49.61,0,0,1,305.62,256Z" fill="#5b5b5f"/><path d="M405.47,424.29c-55.67,0-133.61-29.75-208.49-79.67C141.24,307.5,94.47,264,65.18,222c-31-44.54-38.94-82.89-22.21-108C54.44,96.83,76.42,87.71,106.5,87.71c55.7,0,133.61,29.8,208.52,79.72C370.76,204.53,417.53,248.07,446.79,290c31.07,44.56,39,82.89,22.25,108C457.53,415.22,435.58,424.29,405.47,424.29Zm-299-316.67c-16.13,0-37.36,3-47,17.47-11.7,17.55-3.7,48.73,22,85.55C109.38,250.58,154.3,292.26,208,328c70.68,47.12,146.31,76.34,197.45,76.34,16.13,0,37.39-3,47-17.45,11.7-17.57,3.67-48.74-22-85.55C402.59,261.45,357.67,219.74,304,184,233.31,136.88,157.61,107.62,106.5,107.62Z" fill="#5b5b5f"/><path d="M106.31,420.45c-32.26,0-55.4-9.7-66.94-28C23.3,366.88,32.2,328.78,64.39,285c30.31-41.15,78.24-83.5,134.87-119.15,73.95-46.54,151.1-74.35,206.44-74.35,32.23,0,55.4,9.7,66.94,28,16,25.54,7.17,63.65-25.06,107.37-30.31,41.19-78.21,83.5-134.84,119.17C238.77,392.66,161.65,420.45,106.31,420.45Zm299.4-309c-51,0-126,27.32-195.83,71.3C155.3,217.13,109.32,257.65,80.43,296.87,53.78,333,45,364,56.23,381.77c9.72,15.52,32.59,18.78,50.08,18.78,50.94,0,126-27.34,195.8-71.32,54.61-34.36,100.59-74.87,129.45-114.1C458.2,179,467,148,455.79,130.19,446,114.71,423.16,111.45,405.71,111.45Z" fill="#5b5b5f"/><path d="M256,512c-59.7,0-106.48-112.46-106.48-256S196.3,0,256,0,362.48,112.44,362.48,256,315.7,512,256,512Zm0-492.08c-41.82,0-86.54,94.86-86.54,236S214.18,492.12,256,492.12,342.57,397.21,342.57,256,297.78,19.92,256,19.92Z" fill="#5b5b5f"/></svg>